<svg xmlns="http://www.w3.org/2000/svg" width="20" height="20" viewBox="0 0 20 20" fill="none">
<path d="M10 1.875C5.52002 1.875 1.875 5.52002 1.875 10C1.875 14.48 5.52002 18.125 10 18.125C14.48 18.125 18.125 14.48 18.125 10C18.125 5.52002 14.48 1.875 10 1.875ZM10 3.125C13.8037 3.125 16.875 6.19629 16.875 10C16.875 13.8037 13.8037 16.875 10 16.875C6.19629 16.875 3.125 13.8037 3.125 10C3.125 6.19629 6.19629 3.125 10 3.125ZM9.375 6.25V7.5H10.625V6.25H9.375ZM9.375 8.75V13.75H10.625V8.75H9.375Z" fill="#999999"/>
</svg>