<svg xmlns="http://www.w3.org/2000/svg" width="20" height="20" viewBox="0 0 20 20" fill="none">
<path d="M13.334 5.47279L11.1414 3.76175C10.8585 3.47657 10.222 3.33398 9.79763 3.33398H7.11001C6.26128 3.33398 5.34183 3.97563 5.12965 4.83115L3.43221 10.0356C3.07857 11.0337 3.71511 11.8892 4.77602 11.8892H7.6051C8.02946 11.8892 8.38309 12.2457 8.31237 12.7447L7.95873 15.0261C7.81728 15.6678 8.24164 16.3807 8.87818 16.5946C9.444 16.8085 10.1513 16.5233 10.4342 16.0955L13.334 11.7466" stroke="#999999" stroke-width="1.5" stroke-miterlimit="10"/>
<path d="M16.6673 5.56307V12.769C16.6673 13.7984 16.2673 14.166 15.334 14.166H14.6673C13.734 14.166 13.334 13.7984 13.334 12.769V5.56307C13.334 4.53366 13.734 4.16602 14.6673 4.16602H15.334C16.2673 4.16602 16.6673 4.53366 16.6673 5.56307Z" stroke="#999999" stroke-width="1.5" stroke-linecap="round" stroke-linejoin="round"/>
</svg>