<svg width="26" height="28" viewBox="0 0 26 28" fill="none" xmlns="http://www.w3.org/2000/svg">
<path d="M16.7189 21.1616C19.3144 20.8543 21.8646 20.2418 24.3165 19.3367C22.24 17.0366 21.0926 14.0467 21.0972 10.9479V9.90311C21.0972 7.68638 20.2166 5.56044 18.6492 3.99298C17.0817 2.42551 14.9558 1.54492 12.739 1.54492C10.5223 1.54492 8.39637 2.42551 6.8289 3.99298C5.26144 5.56044 4.38084 7.68638 4.38084 9.90311V10.9479C4.38505 14.0469 3.23715 17.0368 1.16016 19.3367C3.57428 20.2283 6.11935 20.8482 8.75914 21.1616M16.7189 21.1616C14.0749 21.4752 11.4031 21.4752 8.75914 21.1616M16.7189 21.1616C16.9197 21.7883 16.9696 22.4535 16.8646 23.1031C16.7596 23.7527 16.5028 24.3683 16.1149 24.8999C15.727 25.4315 15.2191 25.8639 14.6324 26.162C14.0458 26.4602 13.3971 26.6156 12.739 26.6156C12.081 26.6156 11.4323 26.4602 10.8456 26.162C10.259 25.8639 9.75108 25.4315 9.36319 24.8999C8.9753 24.3683 8.71841 23.7527 8.61345 23.1031C8.50848 22.4535 8.5584 21.7883 8.75914 21.1616" stroke="black" stroke-width="2.08955" stroke-linecap="round" stroke-linejoin="round"/>
</svg>
