<svg xmlns="http://www.w3.org/2000/svg" width="20" height="20" viewBox="0 0 20 20" fill="none">
<path d="M6.66602 14.5285L8.85855 16.2396C9.14146 16.5247 9.778 16.6673 10.2024 16.6673H12.89C13.7387 16.6673 14.6582 16.0257 14.8703 15.1702L16.5678 9.96572C16.9214 8.96761 16.2849 8.11209 15.224 8.11209H12.3949C11.9705 8.11209 11.6169 7.75562 11.6876 7.25657L12.0413 4.97518C12.1827 4.33353 11.7584 3.6206 11.1218 3.40672C10.556 3.19284 9.84873 3.47801 9.56582 3.90577L6.66602 8.25468" stroke="#999999" stroke-width="1.5" stroke-miterlimit="10"/>
<path d="M3.33398 14.4369V7.23104C3.33398 6.20163 3.73398 5.83398 4.66732 5.83398H5.33398C6.26732 5.83398 6.66732 6.20163 6.66732 7.23104V14.4369C6.66732 15.4663 6.26732 15.834 5.33398 15.834H4.66732C3.73398 15.834 3.33398 15.4663 3.33398 14.4369Z" stroke="#999999" stroke-width="1.5" stroke-linecap="round" stroke-linejoin="round"/>
</svg>