<svg width="24" height="24" viewBox="0 0 24 24" fill="none" xmlns="http://www.w3.org/2000/svg">
<path d="M19.3077 3H4.69231C3.97889 3.00209 3.29527 3.29469 2.7908 3.81387C2.28633 4.33305 2.00203 5.03661 2 5.77083V15.2708C2.00203 16.0051 2.28633 16.7086 2.7908 17.2278C3.29527 17.747 3.97889 18.0396 4.69231 18.0417H6.61538V22L11.1212 18.1337C11.1903 18.0742 11.2776 18.0416 11.3678 18.0417H19.3077C20.0211 18.0396 20.7047 17.747 21.2092 17.2278C21.7137 16.7086 21.998 16.0051 22 15.2708V5.77083C21.998 5.03661 21.7137 4.33305 21.2092 3.81387C20.7047 3.29469 20.0211 3.00209 19.3077 3Z" fill="white" stroke="white" stroke-width="1.5" stroke-linejoin="round"/>
<path d="M11.0972 11.4756H12.2573L13.0093 12.4424C13.5195 11.959 13.8364 11.1748 13.8364 10.1113C13.8364 8.2207 12.8374 7.2002 11.5054 7.2002C10.1626 7.2002 9.16357 8.2207 9.16357 10.1113C9.16357 12.002 10.1626 13.0225 11.5054 13.0225C11.7524 13.0225 11.9834 12.9902 12.2036 12.915L11.0972 11.4756ZM15.0073 10.1113C15.0073 11.54 14.5132 12.6519 13.7075 13.334L14.7603 14.6982H13.5464L12.8911 13.8389C12.4722 14.0161 12.0049 14.1074 11.5054 14.1074C9.4751 14.1074 7.99268 12.5928 7.99268 10.1113C7.99268 7.61914 9.4751 6.11523 11.5054 6.11523C13.5142 6.11523 15.0073 7.61914 15.0073 10.1113Z" fill="#4F63D2"/>
</svg>
