<svg width="24" height="24" viewBox="0 0 24 24" fill="none" xmlns="http://www.w3.org/2000/svg">
<g clip-path="url(#clip0_3060_7324)">
<path d="M14 3V7C14 7.26522 14.1264 7.51957 14.3515 7.70711C14.5765 7.89464 14.8817 8 15.2 8H20" stroke="#4F4F4F" stroke-width="1.5" stroke-linecap="round" stroke-linejoin="round"/>
<path d="M17.7143 22H6.28571C5.67951 22 5.09812 21.7659 4.66947 21.3491C4.24082 20.9324 4 20.3671 4 19.7778V4.22222C4 3.63285 4.24082 3.06762 4.66947 2.65087C5.09812 2.23413 5.67951 2 6.28571 2H14.2857L20 7.55556V19.7778C20 20.3671 19.7592 20.9324 19.3305 21.3491C18.9019 21.7659 18.3205 22 17.7143 22Z" stroke="#4F4F4F" stroke-width="1.5" stroke-linecap="round" stroke-linejoin="round"/>
<path d="M8 18L8 16" stroke="#4F63D2" stroke-width="1.5" stroke-linecap="round" stroke-linejoin="round"/>
<path d="M12 18L12 13" stroke="#4F63D2" stroke-width="1.5" stroke-linecap="round" stroke-linejoin="round"/>
<path d="M16 18V11" stroke="#4F63D2" stroke-width="1.5" stroke-linecap="round" stroke-linejoin="round"/>
</g>
<defs>
<clipPath id="clip0_3060_7324">
<rect width="24" height="24" fill="white"/>
</clipPath>
</defs>
</svg>
