<svg width="24" height="24" viewBox="0 0 24 24" fill="none" xmlns="http://www.w3.org/2000/svg">
<path d="M9.99951 4.00146C8.93864 4.00146 7.92123 4.42289 7.17108 5.17304C6.42094 5.92318 5.99951 6.9406 5.99951 8.00146C5.99951 9.06233 6.42094 10.0797 7.17108 10.8299C7.92123 11.58 8.93864 12.0015 9.99951 12.0015C11.0604 12.0015 12.0778 11.58 12.8279 10.8299C13.5781 10.0797 13.9995 9.06233 13.9995 8.00146C13.9995 6.9406 13.5781 5.92318 12.8279 5.17304C12.0778 4.42289 11.0604 4.00146 9.99951 4.00146ZM16.9995 12.0015C16.8695 12.0015 16.7595 12.0915 16.7395 12.2115L16.5495 13.5315C16.2495 13.6615 15.9595 13.8215 15.6995 14.0015L14.4595 13.5015C14.3495 13.5015 14.2195 13.5015 14.1495 13.6315L13.1495 15.3615C13.0895 15.4715 13.1095 15.6015 13.2095 15.6815L14.2695 16.5015C14.2495 16.6715 14.2395 16.8315 14.2395 17.0015C14.2395 17.1715 14.2495 17.3315 14.2695 17.5015L13.2095 18.3215C13.1195 18.4015 13.0895 18.5315 13.1495 18.6415L14.1495 20.3715C14.2095 20.5015 14.3395 20.5015 14.4595 20.5015L15.6995 20.0015C15.9595 20.1815 16.2395 20.3515 16.5495 20.4715L16.7395 21.7915C16.7595 21.9115 16.8595 22.0015 16.9995 22.0015H18.9995C19.1095 22.0015 19.2195 21.9115 19.2395 21.7915L19.4295 20.4715C19.7295 20.3415 19.9995 20.1815 20.2695 20.0015L21.4995 20.5015C21.6295 20.5015 21.7595 20.5015 21.8295 20.3715L22.8295 18.6415C22.8895 18.5315 22.8595 18.4015 22.7695 18.3215L21.6995 17.5015C21.7195 17.3315 21.7395 17.1715 21.7395 17.0015C21.7395 16.8315 21.7295 16.6715 21.6995 16.5015L22.7595 15.6815C22.8495 15.6015 22.8795 15.4715 22.8195 15.3615L21.8195 13.6315C21.7595 13.5015 21.6295 13.5015 21.4995 13.5015L20.2695 14.0015C19.9995 13.8215 19.7295 13.6515 19.4195 13.5315L19.2295 12.2115C19.2195 12.0915 19.1095 12.0015 18.9995 12.0015H16.9995ZM9.99951 14.0015C5.57951 14.0015 1.99951 15.7915 1.99951 18.0015V20.0015H11.6795C11.2332 19.0643 11.0009 18.0395 10.9995 17.0015C11.0015 15.9968 11.2198 15.0043 11.6395 14.0915C11.1095 14.0315 10.5595 14.0015 9.99951 14.0015ZM17.9995 15.5015C18.8295 15.5015 19.4995 16.1715 19.4995 17.0015C19.4995 17.8315 18.8295 18.5015 17.9995 18.5015C17.1595 18.5015 16.4995 17.8315 16.4995 17.0015C16.4995 16.1715 17.1695 15.5015 17.9995 15.5015Z" fill="white"/>
</svg>
