<svg width="24" height="24" viewBox="0 0 24 24" fill="none" xmlns="http://www.w3.org/2000/svg">
<g clip-path="url(#clip0_3060_3916)">
<path d="M17.7143 21.25H6.28571C5.87171 21.25 5.47876 21.0899 5.19228 20.8114C4.90651 20.5336 4.75 20.1613 4.75 19.7778V4.22222C4.75 3.83869 4.90651 3.46645 5.19228 3.18862C5.47876 2.91009 5.87171 2.75 6.28571 2.75H13.9812L19.25 7.87242V19.7778C19.25 20.1613 19.0935 20.5336 18.8077 20.8114C18.5212 21.0899 18.1283 21.25 17.7143 21.25Z" fill="white" stroke="white" stroke-width="1.5" stroke-linecap="round" stroke-linejoin="round"/>
<path d="M14 1V6.6C14 6.9713 14.1475 7.3274 14.4101 7.58995C14.6726 7.8525 15.0287 8 15.4 8H21" stroke="#4F63D2" stroke-width="1.5" stroke-linecap="round" stroke-linejoin="round"/>
<path d="M8 18L8 16" stroke="#4F63D2" stroke-width="1.5" stroke-linecap="round" stroke-linejoin="round"/>
<path d="M12 18L12 13" stroke="#4F63D2" stroke-width="1.5" stroke-linecap="round" stroke-linejoin="round"/>
<path d="M16 18V11" stroke="#4F63D2" stroke-width="1.5" stroke-linecap="round" stroke-linejoin="round"/>
</g>
<defs>
<clipPath id="clip0_3060_3916">
<rect width="24" height="24" fill="white"/>
</clipPath>
</defs>
</svg>
