<svg width="24" height="24" viewBox="0 0 24 24" fill="none" xmlns="http://www.w3.org/2000/svg">
<path d="M20.1208 6H19.0042C19.0031 6 19.002 6.00042 19.0012 6.00118C19.0004 6.00193 19 6.00295 19 6.00402V19.5714C19 19.9503 19.158 20.3137 19.4393 20.5816C19.7206 20.8495 20.1022 21 20.5 21C20.8978 21 21.2794 20.8495 21.5607 20.5816C21.842 20.3137 22 19.9503 22 19.5714V7.78973C22 7.31507 21.802 6.85984 21.4496 6.5242C21.0972 6.18856 20.6192 6 20.1208 6Z" fill="white"/>
<path d="M17.84 19.1429V3.78571C17.84 3.55121 17.7934 3.319 17.703 3.10235C17.6125 2.8857 17.4799 2.68884 17.3128 2.52302C17.1456 2.3572 16.9472 2.22567 16.7288 2.13593C16.5104 2.04619 16.2764 2 16.04 2H3.8C3.32261 2 2.86477 2.18814 2.52721 2.52302C2.18964 2.85791 2 3.31211 2 3.78571V19.5C2 20.163 2.2655 20.7989 2.73809 21.2678C3.21068 21.7366 3.85165 22 4.52 22H19.9482C19.9551 22.0001 19.9618 21.9988 19.9681 21.9962C19.9744 21.9937 19.9802 21.9899 19.985 21.9851C19.9898 21.9803 19.9936 21.9746 19.9962 21.9684C19.9988 21.9621 20.0001 21.9554 20 21.9487C20 21.9374 19.9962 21.9265 19.9893 21.9177C19.9824 21.9088 19.9727 21.9024 19.9617 21.8996C19.3527 21.7338 18.8153 21.3744 18.432 20.8764C18.0487 20.3784 17.8407 19.7694 17.84 19.1429ZM4.88 6.28571C4.88 6.09627 4.95586 5.91459 5.09088 5.78064C5.22591 5.64668 5.40904 5.57143 5.6 5.57143H8.48C8.67096 5.57143 8.85409 5.64668 8.98912 5.78064C9.12414 5.91459 9.2 6.09627 9.2 6.28571V9.14286C9.2 9.3323 9.12414 9.51398 8.98912 9.64793C8.85409 9.78189 8.67096 9.85714 8.48 9.85714H5.6C5.40904 9.85714 5.22591 9.78189 5.09088 9.64793C4.95586 9.51398 4.88 9.3323 4.88 9.14286V6.28571ZM14.24 18.4286H5.62025C5.2328 18.4286 4.90025 18.133 4.8809 17.7487C4.87621 17.6521 4.89133 17.5556 4.92535 17.465C4.95937 17.3743 5.01158 17.2915 5.07882 17.2215C5.14605 17.1515 5.22692 17.0958 5.3165 17.0577C5.40609 17.0196 5.50254 17 5.6 17H14.2197C14.6072 17 14.9397 17.2955 14.9591 17.6799C14.9638 17.7765 14.9487 17.873 14.9146 17.9636C14.8806 18.0542 14.8284 18.137 14.7612 18.207C14.6939 18.277 14.6131 18.3328 14.5235 18.3708C14.4339 18.4089 14.3375 18.4286 14.24 18.4286ZM14.24 15.5714H5.62025C5.2328 15.5714 4.90025 15.2759 4.8809 14.8915C4.87621 14.7949 4.89133 14.6984 4.92535 14.6078C4.95937 14.5172 5.01158 14.4344 5.07882 14.3644C5.14605 14.2944 5.22692 14.2387 5.3165 14.2006C5.40609 14.1625 5.50254 14.1429 5.6 14.1429H14.2197C14.6072 14.1429 14.9397 14.4384 14.9591 14.8228C14.9638 14.9193 14.9487 15.0159 14.9146 15.1065C14.8806 15.1971 14.8284 15.2799 14.7612 15.3499C14.6939 15.4199 14.6131 15.4756 14.5235 15.5137C14.4339 15.5518 14.3375 15.5714 14.24 15.5714ZM14.24 12.7143H5.62025C5.2328 12.7143 4.90025 12.4187 4.8809 12.0344C4.87621 11.9378 4.89133 11.8413 4.92535 11.7507C4.95937 11.6601 5.01158 11.5772 5.07882 11.5072C5.14605 11.4373 5.22692 11.3815 5.3165 11.3434C5.40609 11.3054 5.50254 11.2857 5.6 11.2857H14.2197C14.6072 11.2857 14.9397 11.5812 14.9591 11.9656C14.9638 12.0622 14.9487 12.1587 14.9146 12.2493C14.8806 12.3399 14.8284 12.4228 14.7612 12.4927C14.6939 12.5627 14.6131 12.6185 14.5235 12.6566C14.4339 12.6946 14.3375 12.7143 14.24 12.7143ZM14.24 9.85714H11.3802C10.9928 9.85714 10.6602 9.56161 10.6409 9.17723C10.6362 9.08065 10.6513 8.98414 10.6854 8.89353C10.7194 8.80292 10.7716 8.72011 10.8388 8.65011C10.9061 8.58011 10.9869 8.52438 11.0765 8.4863C11.1661 8.44822 11.2625 8.42858 11.36 8.42857H14.2197C14.6072 8.42857 14.9397 8.72411 14.9591 9.10848C14.9638 9.20506 14.9487 9.30158 14.9146 9.39219C14.8806 9.48279 14.8284 9.56561 14.7612 9.63561C14.6939 9.70561 14.6131 9.76133 14.5235 9.79941C14.4339 9.83749 14.3375 9.85713 14.24 9.85714ZM14.24 7H11.3802C10.9928 7 10.6602 6.70446 10.6409 6.32009C10.6362 6.22351 10.6513 6.12699 10.6854 6.03639C10.7194 5.94578 10.7716 5.86296 10.8388 5.79296C10.9061 5.72297 10.9869 5.66724 11.0765 5.62916C11.1661 5.59108 11.2625 5.57144 11.36 5.57143H14.2197C14.6072 5.57143 14.9397 5.86696 14.9591 6.25134C14.9638 6.34792 14.9487 6.44444 14.9146 6.53504C14.8806 6.62565 14.8284 6.70846 14.7612 6.77846C14.6939 6.84846 14.6131 6.90419 14.5235 6.94227C14.4339 6.98035 14.3375 6.99999 14.24 7Z" fill="white"/>
</svg>
