<svg width="15" height="16" viewBox="0 0 15 16" fill="none" xmlns="http://www.w3.org/2000/svg">
<g id="Group 1707481925">
<path id="Vector" d="M13.1108 14.5743H1.44301C1.37273 14.574 1.30352 14.5577 1.24104 14.5268C1.17857 14.4958 1.12461 14.451 1.0836 14.3961C1.04259 14.3412 1.01568 14.2778 1.00508 14.2109C0.994488 14.1441 1.00051 14.0758 1.02265 14.0117L1.31178 13.1773C1.42989 12.8365 1.65648 12.5401 1.95946 12.3301C2.26243 12.1201 2.62644 12.0071 2.9999 12.0071H11.5539C11.9273 12.0071 12.2913 12.1201 12.5943 12.3301C12.8973 12.5401 13.1239 12.8365 13.242 13.1773L13.5311 14.0117C13.5533 14.0758 13.5593 14.1441 13.5487 14.2109C13.5381 14.2778 13.5112 14.3412 13.4702 14.3961C13.4292 14.451 13.3752 14.4958 13.3127 14.5268C13.2503 14.5577 13.181 14.574 13.1108 14.5743Z" stroke="#DF305F" stroke-linecap="round" stroke-linejoin="round"/>
<path id="Vector_2" d="M2.82861 12.0072V7.6215C2.82861 6.48671 3.29726 5.3984 4.13147 4.59598C4.96568 3.79356 6.09711 3.34277 7.27686 3.34277C8.45661 3.34277 9.58804 3.79356 10.4222 4.59598C11.2565 5.3984 11.7251 6.48671 11.7251 7.6215V12.0072" stroke="#DF305F" stroke-linecap="round" stroke-linejoin="round"/>
<path id="Vector_3" d="M10.2416 7.53165C10.241 6.82769 9.95001 6.15273 9.43251 5.65496C8.91501 5.15718 8.2133 4.87728 7.48145 4.87671" stroke="#DF305F" stroke-linecap="round" stroke-linejoin="round"/>
<path id="Vector_4" d="M7.2124 1V2.09749" stroke="#DF305F" stroke-linecap="round" stroke-linejoin="round"/>
<path id="Vector_5" d="M3.45605 1.96484L4.06769 2.76711" stroke="#DF305F" stroke-linecap="round" stroke-linejoin="round"/>
<path id="Vector_6" d="M10.8201 1.96484L10.2085 2.76711" stroke="#DF305F" stroke-linecap="round" stroke-linejoin="round"/>
</g>
</svg>
