<svg width="18" height="20" viewBox="0 0 18 20" fill="none" xmlns="http://www.w3.org/2000/svg">
<path d="M9 0.25C4.46484 0.25 0.75 3.96484 0.75 8.5V13C0.75 13.9697 1.38281 14.7959 2.25 15.1094V15.25C2.25 17.3096 3.94043 19 6 19H6.96094C7.22168 19.4482 7.69629 19.75 8.25 19.75H9.75C10.5762 19.75 11.25 19.0762 11.25 18.25C11.25 17.4238 10.5762 16.75 9.75 16.75H8.25C7.69629 16.75 7.22168 17.0518 6.96094 17.5H6C4.75781 17.5 3.75 16.4922 3.75 15.25H5.25V8.5H2.25C2.25 4.78516 5.28516 1.75 9 1.75C12.7148 1.75 15.75 4.78516 15.75 8.5H12.75V15.25H15C16.2334 15.25 17.25 14.2334 17.25 13V8.5C17.25 3.96484 13.5352 0.25 9 0.25ZM2.25 10H3.75V13.75H3C2.58398 13.75 2.25 13.416 2.25 13V10ZM14.25 10H15.75V13C15.75 13.416 15.416 13.75 15 13.75H14.25V10Z" fill="#4F4F4F"/>
</svg>
