<svg width="90" height="18" viewBox="0 0 90 18" fill="none" xmlns="http://www.w3.org/2000/svg">
<mask id="mask0_341_1870" style="mask-type:luminance" maskUnits="userSpaceOnUse" x="0" y="0" width="90" height="18">
<path d="M90 0H0V18H90V0Z" fill="white"/>
</mask>
<g mask="url(#mask0_341_1870)">
<path d="M48.1118 17.9991H36.1352C35.2976 18.0111 34.4664 17.8527 33.6929 17.5335C32.9194 17.2144 32.22 16.7414 31.6379 16.1437C31.0354 15.5661 30.5586 14.8722 30.237 14.1047C29.9153 13.3372 29.7556 12.5125 29.7677 11.6814V6.31774C29.7557 5.48665 29.9154 4.66193 30.2371 3.89445C30.5587 3.12697 31.0355 2.43302 31.6379 1.85541C32.22 1.25779 32.9194 0.78484 33.6929 0.465732C34.4664 0.146624 35.2976 -0.0118749 36.1352 1.20265e-05H48.1118L46.078 5.17735H36.1352C35.8316 5.18132 35.5416 5.30274 35.3269 5.51575C35.1122 5.72876 34.9898 6.01652 34.9858 6.31774V11.6836C34.9897 11.9849 35.112 12.2727 35.3267 12.4857C35.5415 12.6988 35.8316 12.8202 36.1352 12.824H47.2152L48.1118 17.9991Z" fill="#102FA8"/>
<path d="M68.1881 6.10352e-05L66.142 5.1774H55.7296V6.85686H66.142L65.6873 11.1424H55.7296V17.9992H50.5151V6.10352e-05H68.1881Z" fill="#102FA8"/>
<path d="M88.1314 1.85542C87.5492 1.25774 86.8497 0.784761 86.0762 0.465651C85.3026 0.146541 84.4713 -0.0119276 83.6336 2.1171e-05H75.4082C74.5705 -0.0119543 73.7392 0.146502 72.9656 0.465614C72.192 0.784725 71.4926 1.25772 70.9104 1.85542C70.3083 2.43279 69.8318 3.12639 69.5102 3.89346C69.1887 4.66053 69.0289 5.48481 69.0407 6.31549V11.6836C69.0285 12.5147 69.1881 13.3394 69.5097 14.1069C69.8313 14.8744 70.308 15.5684 70.9104 16.146C71.4926 16.7437 72.192 17.2167 72.9656 17.5358C73.7392 17.8549 74.5705 18.0134 75.4082 18.0014H83.6336C84.4713 18.0133 85.3026 17.8549 86.0762 17.5357C86.8497 17.2166 87.5492 16.7437 88.1314 16.146C88.7338 15.5683 89.2104 14.8744 89.532 14.1069C89.8536 13.3394 90.0132 12.5147 90.0011 11.6836V6.31549C90.0132 5.48445 89.8535 4.65976 89.5319 3.89229C89.2103 3.12482 88.7337 2.43085 88.1314 1.85316M84.7831 11.6836C84.7789 11.9848 84.6565 12.2725 84.4418 12.4855C84.2271 12.6985 83.9372 12.82 83.6336 12.824H82.9111V14.4449L81.0082 12.824H75.4082C75.1046 12.82 74.8147 12.6985 74.6 12.4855C74.3853 12.2725 74.2629 11.9848 74.2587 11.6836V6.31549C74.2627 6.01428 74.3851 5.72652 74.5998 5.51351C74.8145 5.3005 75.1046 5.17907 75.4082 5.1751H83.6336C83.9372 5.17907 84.2272 5.3005 84.442 5.51351C84.6567 5.72652 84.779 6.01428 84.7831 6.31549V11.6836Z" fill="#102FA8"/>
<path d="M13.6329 0.0759734C14.4657 0.0637199 15.2922 0.220913 16.0614 0.537852C16.8306 0.854792 17.5262 1.32475 18.1053 1.91874C18.7081 2.49326 19.1853 3.1848 19.5071 3.95027C19.8288 4.71573 19.9882 5.53873 19.9754 6.36799V18.0002H14.7701V14.3647H5.19336V17.9997H0.000776913V6.36799C-0.0125361 5.53985 0.145373 4.71778 0.464758 3.95254C0.784142 3.1873 1.25822 2.49513 1.85774 1.91874C2.43886 1.32387 3.13669 0.853447 3.90816 0.536508C4.67963 0.219569 5.50839 0.0628336 6.34328 0.0759734H13.6329ZM14.7696 10.1158V6.36799C14.771 6.21828 14.7415 6.06988 14.6828 5.93193C14.6242 5.79399 14.5377 5.66942 14.4286 5.56592C14.3262 5.45861 14.2027 5.37322 14.0658 5.31504C13.9289 5.25685 13.7814 5.22709 13.6325 5.22759H6.34328C6.03963 5.23156 5.74953 5.35297 5.53475 5.56597C5.31997 5.77897 5.19748 6.06673 5.19336 6.36799V10.1158H14.7696Z" fill="#EE3678"/>
<path d="M27.4803 2.63898H22.2622V6.73952H27.4803V2.63898Z" fill="#EE3678"/>
<path d="M27.4803 8.22247H22.2622V18.0002H27.4803V8.22247Z" fill="#EE3678"/>
</g>
</svg>
